<!-- filepath: c:\Users\redwa\OneDrive\Desktop\Automatic Pet Feeder\public\assets\images\apple-icon.svg -->
<svg xmlns="http://www.w3.org/2000/svg" viewBox="0 0 24 24" width="24" height="24">
  <path d="M17.05 20.28c-.98.95-2.05.86-3.1.38-1.1-.5-2.1-.48-3.27 0-1.49.62-2.25.44-3.1-.38C3.32 15.92 3.85 8.6 8.32 8.3c1.18.06 2.05.56 2.78.56.46 0 1.34-.54 2.74-.52.87.02 2.03.3 2.84.9.94.76 1.3 1.9 1.28 3.04-2.74.2-3.8 2.1-3.8 3.04 0 2.4 2.64 3.2 2.69 3.22-.06.14-.44 1.52-1.44 2.46-1.03.9-1.95 1.28-2.36 1.28ZM14.47 8.12c.67-.86 1.18-2.07.99-3.33-1.07.08-2.3.74-3.01 1.56-.63.73-1.17 1.9-1.03 3.24 1.16.08 2.36-.66 3.05-1.47Z"/>
</svg>