<?xml version="1.0" encoding="UTF-8"?>
<svg width="24" height="24" viewBox="0 0 24 24" fill="none" xmlns="http://www.w3.org/2000/svg">
  <path d="M22.56 12.25C22.56 11.47 22.49 10.72 22.36 10H12V14.26H17.92C17.66 15.63 16.88 16.79 15.72 17.57V20.34H19.22C21.28 18.42 22.56 15.59 22.56 12.25Z" fill="#4285F4"/>
  <path d="M12 23C14.97 23 17.46 22.02 19.22 20.34L15.72 17.57C14.74 18.23 13.49 18.63 12 18.63C9.17 18.63 6.79 16.72 5.96 14.1H2.34V16.94C4.09 20.57 7.8 23 12 23Z" fill="#34A853"/>
  <path d="M5.96 14.09C5.74 13.44 5.63 12.73 5.63 12C5.63 11.27 5.75 10.56 5.96 9.91V7.07H2.34C1.52 8.55 1 10.22 1 12C1 13.78 1.52 15.45 2.34 16.93L5.96 14.09Z" fill="#FBBC05"/>
  <path d="M12 5.38C13.62 5.38 15.06 5.94 16.2 7.02L19.28 3.94C17.46 2.24 14.97 1.25 12 1.25C7.8 1.25 4.09 3.68 2.34 7.31L5.96 10.15C6.8 7.53 9.17 5.38 12 5.38Z" fill="#EA4335"/>
</svg> 